# xmcd
#
# Track frame offsets: 
#        150
#        21100
#        40123
#        60638
#        77827
#        99501
#        115415
#        138539
#        158083
#        175733
#        198864
#        215731
#
# Disc length: 3121 seconds
#
# Revision: 0
# Processed by: cddbd v1.5.2PL0 Copyright (c) Steve Scherf et al.
# Submitted via: ExactAudioCopy v0.95a5
#
DISCID=a00c2f0c
DTITLE=nosie katzmann - greatest hits 1
DYEAR=1900
DGENRE=Country
TTITLE0=mr. vain
TTITLE1=right in the night
TTITLE2=more and more
TTITLE3=inside out
TTITLE4=love is the price
TTITLE5=got to get it
TTITLE6=anything
TTITLE7=find me
TTITLE8=break it up
TTITLE9=angel
TTITLE10=love is all around
TTITLE11=piece of my heart
EXTD=
EXTT0=
EXTT1=
EXTT2=
EXTT3=
EXTT4=
EXTT5=
EXTT6=
EXTT7=
EXTT8=
EXTT9=
EXTT10=
EXTT11=
PLAYORDER=
